o MyObject_206
g MyObject_206
v 158.7320 75.6857 1.4666
v 158.7320 80.5018 1.4666
v 158.7320 75.6857 18.7971
v 158.7320 80.5018 18.7971
v 156.0149 75.0798 18.7972
v 156.0149 75.0798 1.4666
v 156.0149 75.0798 1.4666
v 156.0149 75.0798 18.7972
v 156.0149 66.0434 18.7972
v 156.0149 66.0433 1.4666
v 156.0149 57.0069 18.7972
v 156.0149 57.0069 1.4666
v 156.0149 57.0069 1.4666
v 156.0149 57.0069 18.7972
v 158.7320 56.2644 18.7972
v 158.7320 56.2644 1.4666
v 158.7320 51.7276 1.4666
v 158.7320 51.7276 18.7972
v 50.2242 109.8290 1.4666
v 41.3497 109.8290 1.4666
v 50.2242 109.8290 18.7971
v 41.3497 109.8290 18.7971
v 51.6070 107.1119 18.7972
v 51.6070 107.1119 1.4666
v 51.6070 107.1119 1.4666
v 51.6070 107.1119 18.7972
v 60.6434 107.1119 18.7972
v 60.6435 107.1119 1.4666
v 69.6799 107.1119 18.7972
v 69.6799 107.1119 1.4666
v 69.6799 107.1119 1.4666
v 69.6799 107.1119 18.7972
v 71.0627 109.8290 18.7972
v 71.0627 109.8290 1.4666
v 79.9371 109.8290 18.7972
v 79.9371 109.8290 1.4666
v 158.7320 104.3902 1.4666
v 158.7320 109.2064 1.4666
v 158.7320 104.3902 18.7971
v 158.7320 109.2064 18.7971
v 156.0149 103.7843 18.7972
v 156.0149 103.7843 1.4666
v 156.0149 103.7843 1.4666
v 156.0149 103.7843 18.7972
v 156.0149 94.7479 18.7972
v 156.0149 94.7478 1.4666
v 156.0149 85.7114 18.7972
v 156.0149 85.7114 1.4666
v 156.0149 85.7114 1.4666
v 156.0149 85.7114 18.7972
v 158.7320 84.9689 18.7972
v 158.7320 84.9689 1.4666
v 158.7320 80.4321 1.4666
v 158.7320 80.4321 18.7972
vn 0.7891 -0.6250 -0.0078
vn 0.9922 0.0000 -0.0078
vn 0.7891 -0.6250 -0.0078
vn 0.9922 0.0000 -0.0078
vn 0.2266 -0.9766 -0.0078
vn 0.2266 -0.9766 -0.0078
vn 0.9922 0.0000 -0.0078
vn 0.9922 0.0000 -0.0078
vn 0.9922 0.0000 -0.0078
vn 0.9922 0.0000 -0.0078
vn 0.9922 0.0000 -0.0078
vn 0.9922 0.0000 -0.0078
vn 0.2734 0.9609 -0.0078
vn 0.2734 0.9609 -0.0078
vn 0.8047 0.6094 -0.0078
vn 0.8047 0.6094 -0.0078
vn 0.9922 0.0000 -0.0078
vn 0.9922 0.0000 -0.0078
vn 0.5313 0.8516 -0.0078
vn 0.0000 0.9922 -0.0078
vn 0.5313 0.8516 -0.0078
vn 0.0000 0.9922 -0.0078
vn 0.8984 0.4531 -0.0078
vn 0.8984 0.4531 -0.0078
vn 0.0000 0.9922 -0.0078
vn 0.0000 0.9922 -0.0078
vn 0.0000 0.9922 -0.0078
vn 0.0000 0.9922 -0.0078
vn 0.0000 0.9922 -0.0078
vn 0.0000 0.9922 -0.0078
vn -0.8906 0.4531 -0.0078
vn -0.8906 0.4531 -0.0078
vn -0.5234 0.8516 -0.0078
vn -0.5234 0.8516 -0.0078
vn 0.0000 0.9922 -0.0078
vn 0.0000 0.9922 -0.0078
vn 0.7891 -0.6250 -0.0078
vn 0.9922 0.0000 -0.0078
vn 0.7891 -0.6250 -0.0078
vn 0.9922 0.0000 -0.0078
vn 0.2266 -0.9766 -0.0078
vn 0.2266 -0.9766 -0.0078
vn 0.9922 0.0000 -0.0078
vn 0.9922 0.0000 -0.0078
vn 0.9922 0.0000 -0.0078
vn 0.9922 0.0000 -0.0078
vn 0.9922 0.0000 -0.0078
vn 0.9922 0.0000 -0.0078
vn 0.2734 0.9609 -0.0078
vn 0.2734 0.9609 -0.0078
vn 0.8047 0.6094 -0.0078
vn 0.8047 0.6094 -0.0078
vn 0.9922 0.0000 -0.0078
vn 0.9922 0.0000 -0.0078
vt 0.7285 0.0000 0.0000
vt 0.8633 0.0000 0.0000
vt 0.7285 0.4336 0.0000
vt 0.8633 0.4336 0.0000
vt 0.6250 0.4336 0.0000
vt 0.6250 0.0000 0.0000
vt 0.6250 0.0000 0.0000
vt 0.6250 0.4336 0.0000
vt 0.5000 0.4336 0.0000
vt 0.5000 0.0000 0.0000
vt 0.3769 0.4336 0.0000
vt 0.3769 0.0000 0.0000
vt 0.3769 0.0000 0.0000
vt 0.3769 0.4336 0.0000
vt 0.2695 0.4336 0.0000
vt 0.2695 0.0000 0.0000
vt 0.1426 0.0000 0.0000
vt 0.1426 0.4336 0.0000
vt 0.7500 0.0000 0.0000
vt 0.9980 0.0000 0.0000
vt 0.7500 0.4336 0.0000
vt 0.9980 0.4336 0.0000
vt 0.6250 0.4336 0.0000
vt 0.6250 0.0000 0.0000
vt 0.6250 0.0000 0.0000
vt 0.6250 0.4336 0.0000
vt 0.5000 0.4336 0.0000
vt 0.5000 0.0000 0.0000
vt 0.3769 0.4336 0.0000
vt 0.3769 0.0000 0.0000
vt 0.3769 0.0000 0.0000
vt 0.3769 0.4336 0.0000
vt 0.2519 0.4336 0.0000
vt 0.2519 0.0000 0.0000
vt 0.0020 0.4336 0.0000
vt 0.0020 0.0000 0.0000
vt 0.7285 0.0000 0.0000
vt 0.8633 0.0000 0.0000
vt 0.7285 0.4336 0.0000
vt 0.8633 0.4336 0.0000
vt 0.6250 0.4336 0.0000
vt 0.6250 0.0000 0.0000
vt 0.6250 0.0000 0.0000
vt 0.6250 0.4336 0.0000
vt 0.5000 0.4336 0.0000
vt 0.5000 0.0000 0.0000
vt 0.3769 0.4336 0.0000
vt 0.3769 0.0000 0.0000
vt 0.3769 0.0000 0.0000
vt 0.3769 0.4336 0.0000
vt 0.2695 0.4336 0.0000
vt 0.2695 0.0000 0.0000
vt 0.1426 0.0000 0.0000
vt 0.1426 0.4336 0.0000
f 1/1/1 2/2/2 3/3/3
f 3/3/3 2/2/2 4/4/4
f 1/1/1 3/3/3 5/5/5
f 1/1/1 5/5/5 6/6/6
f 7/7/7 8/8/8 9/9/9
f 7/7/7 9/9/9 10/10/10
f 10/10/10 9/9/9 11/11/11
f 10/10/10 11/11/11 12/12/12
f 13/13/13 14/14/14 15/15/15
f 13/13/13 15/15/15 16/16/16
f 16/16/16 15/15/15 17/17/17
f 17/17/17 15/15/15 18/18/18
f 19/19/19 20/20/20 21/21/21
f 21/21/21 20/20/20 22/22/22
f 19/19/19 21/21/21 23/23/23
f 19/19/19 23/23/23 24/24/24
f 25/25/25 26/26/26 27/27/27
f 25/25/25 27/27/27 28/28/28
f 28/28/28 27/27/27 29/29/29
f 28/28/28 29/29/29 30/30/30
f 31/31/31 32/32/32 33/33/33
f 31/31/31 33/33/33 34/34/34
f 34/34/34 33/33/33 35/35/35
f 34/34/34 35/35/35 36/36/36
f 37/37/37 38/38/38 39/39/39
f 39/39/39 38/38/38 40/40/40
f 37/37/37 39/39/39 41/41/41
f 37/37/37 41/41/41 42/42/42
f 43/43/43 44/44/44 45/45/45
f 43/43/43 45/45/45 46/46/46
f 46/46/46 45/45/45 47/47/47
f 46/46/46 47/47/47 48/48/48
f 49/49/49 50/50/50 51/51/51
f 49/49/49 51/51/51 52/52/52
f 52/52/52 51/51/51 53/53/53
f 53/53/53 51/51/51 54/54/54
